<svg width="1276" height="808" viewBox="0 0 1276 808" fill="none" xmlns="http://www.w3.org/2000/svg">
<g id="Frame 1">
<rect width="1276" height="808" fill="white"/>
<path id="Vector 59" d="M136 336.16C136 336.16 101.77 303.26 93 303.29C93 303.29 121.23 304.58 136.79 334.41L136 336.16Z" fill="#6C63FF"/>
<g id="flower">
<path id="flower_2" d="M1183.79 241.42C1183.79 241.42 1168.56 235.23 1120.11 257.42C1071.66 279.61 1065.61 276.82 1053.06 273.42C1040.51 270.02 1033.53 269.21 1020.06 250.65C1020.06 250.65 1010.58 199.25 1001.4 191.28C992.22 183.31 953.22 195.82 953.22 195.82C953.22 195.82 906.47 206.55 897.56 144.09C897.56 144.09 903.88 96.98 895.27 82.53C895.27 82.53 912.65 90.02 941.33 77.92C970.01 65.82 992.98 90.92 992.98 90.92C992.98 90.92 1000.21 109.65 999.45 120.81C998.69 131.97 1003.28 136.17 1016.96 130.81C1016.96 130.81 1023.68 121.25 1014.16 105.45C1004.64 89.65 997.85 77.88 1000.51 65.6C1003.17 53.32 1010.8 36.32 1035.34 27.81C1059.88 19.3 1093.21 17.66 1109.21 11C1125.21 4.34 1129.08 0 1129.08 0C1129.08 0 1119.24 9.85999 1142.43 51.68C1165.62 93.5 1150.84 111.68 1150.84 111.68C1150.84 111.68 1138.5 141.08 1084.03 138.68C1084.03 138.68 1031.54 140.6 1060.16 162.86C1060.16 162.86 1078.48 159.13 1105.88 150.42C1133.28 141.71 1153.06 177.65 1157.97 202.66C1162.88 227.67 1183.79 241.42 1183.79 241.42Z" fill="#6C63FF"/>
<path id="Vector" d="M1113.24 31.72L1113.52 31.65C1115.63 39.65 1092.17 71.65 1072.12 97.18L1071.88 97C1100.17 61.04 1114.86 37.86 1113.24 31.72Z" fill="#444053"/>
<path id="Vector 2" d="M1072.3 96.47L1072.42 96.8C1056.42 117.16 1036.25 141.46 1020.13 159.46C1018.6 161.18 1017.07 162.98 1015.6 164.82L1015.14 164.45C1016.62 162.6 1018.14 160.79 1019.69 159.07C1035.81 141.08 1056.29 116.83 1072.3 96.47Z" fill="#444053"/>
<path id="Vector 3" d="M1015.53 163.96L1015.85 164.51C986.51 201.14 984.57 258.02 984.5 258.51L978.31 251.37C978.41 250.87 985.98 200.85 1015.53 163.96Z" fill="#444053"/>
<path id="Vector 4" d="M1149.76 221.55C1149.76 221.55 1115.16 203.55 1088.2 210.02C1061.24 216.49 1000.53 187.21 1000.53 187.21C1000.53 187.21 974.76 176.74 969.53 164.8C969.53 164.8 951.84 146.11 950.83 136.42C949.82 126.73 932.61 102.42 921.38 101.49" stroke="#444053" stroke-miterlimit="10"/>
<path id="Vector 5" d="M1144.75 238.87C1144.75 238.87 1127.33 227.13 1129.35 213.45" stroke="#444053" stroke-miterlimit="10"/>
<path id="Vector 6" d="M1118.02 254.03C1118.02 254.03 1093.11 244.98 1090.6 209.51" stroke="#444053" stroke-miterlimit="10"/>
<path id="Vector 7" d="M1077.81 263.21C1077.81 263.21 1054 243.45 1061.9 208.93" stroke="#444053" stroke-miterlimit="10"/>
<path id="Vector 8" d="M1029.5 253.55C1029.5 253.55 1013.63 220.3 1027.75 198.66" stroke="#444053" stroke-miterlimit="10"/>
<path id="Vector 9" d="M1150.16 199.63C1150.16 199.63 1132.16 205.35 1136.01 214.83" stroke="#444053" stroke-miterlimit="10"/>
<path id="Vector 10" d="M1128.41 166.92C1128.41 166.92 1104.3 174.57 1103.73 208.68" stroke="#444053" stroke-miterlimit="10"/>
<path id="Vector 11" d="M1094.79 159.05C1094.79 159.05 1072.85 186.14 1074.45 210.76" stroke="#444053" stroke-miterlimit="10"/>
<path id="Vector 12" d="M1056.41 169.67C1056.41 169.67 1034.61 190.51 1037.41 202.1" stroke="#444053" stroke-miterlimit="10"/>
<path id="Vector 13" d="M1043.21 162.31C1043.21 162.31 1022.77 165.98 1019.91 159.31" stroke="#444053" stroke-miterlimit="10"/>
<path id="Vector 14" d="M1016.65 137.63C1016.65 137.63 1026.98 151.31 1029.65 148.25" stroke="#444053" stroke-miterlimit="10"/>
<path id="Vector 15" d="M1119.03 128.98C1119.03 128.98 1067.5 132.72 1055.84 117.19" stroke="#444053" stroke-miterlimit="10"/>
<path id="Vector 16" d="M1005.81 68.71C1005.81 68.71 1029.99 120.61 1047.54 127.22" stroke="#444053" stroke-miterlimit="10"/>
<path id="Vector 17" d="M1031.17 43.99C1031.17 43.99 1046.02 91.73 1064.42 106.63" stroke="#444053" stroke-miterlimit="10"/>
<path id="Vector 18" d="M1140.71 89.55C1140.71 89.55 1101.53 106.37 1078 89.36" stroke="#444053" stroke-width="0.75" stroke-miterlimit="10"/>
<path id="Vector 19" d="M1066.08 33.81C1066.08 33.81 1075.03 68.91 1087.08 77.38" stroke="#444053" stroke-width="0.75" stroke-miterlimit="10"/>
<path id="Vector 20" d="M1134.8 50.28C1134.8 50.28 1112.8 58.61 1104.55 52.28" stroke="#444053" stroke-width="0.75" stroke-miterlimit="10"/>
<path id="Vector 21" d="M997.79 149.1C997.79 149.1 997.73 179.69 989.45 181.86" stroke="#444053" stroke-miterlimit="10"/>
<path id="Vector 22" d="M929.71 188.73C929.71 188.73 962.78 191.55 978.03 174.55" stroke="#444053" stroke-miterlimit="10"/>
<path id="Vector 23" d="M989.25 112.96C989.25 112.96 981.25 143.96 959.17 152.34" stroke="#444053" stroke-miterlimit="10"/>
<path id="Vector 24" d="M909.87 156.05C909.87 156.05 933.28 164.19 953.41 143.46" stroke="#444053" stroke-miterlimit="10"/>
<path id="Vector 25" d="M963.22 86.29C963.22 86.29 961.01 112.64 946.69 124.97" stroke="#444053" stroke-miterlimit="10"/>
<path id="Vector 26" d="M910.76 115.9C910.76 115.9 930.19 116.03 934.76 109.7" stroke="#444053" stroke-miterlimit="10"/>
</g>
<path id="Vector 27" d="M280.94 742.62C280.94 742.62 294.25 733.84 307.44 740.09C307.44 740.09 303.38 747.91 286.68 747.17L280.94 742.62Z" fill="#6C63FF"/>
<path id="Vector 28" d="M279.31 743.09C279.31 743.09 275.26 758.55 285.41 769C285.41 769 291.52 762.64 285.46 747.07L279.31 743.09Z" fill="#6C63FF"/>
<path id="Vector 29" d="M262.71 728.29C262.71 728.29 263.71 715.17 293.31 719.52C293.31 719.52 293.45 727.98 283.05 731.99C272.65 736 267.9 732.62 262.71 728.29Z" fill="#6C63FF"/>
<path id="Vector 30" d="M260.89 728.2C260.89 728.2 248.37 732.2 259.53 759.99C259.53 759.99 267.79 758.15 269.25 747.1C270.71 736.05 266.32 732.22 260.89 728.2Z" fill="#6C63FF"/>
<path id="Vector 31" d="M244.12 709.55C244.12 709.55 242.43 687.97 272.69 690.19C272.69 690.19 274.84 709.72 249.47 714.74L244.12 709.55Z" fill="#6C63FF"/>
<path id="Vector 32" d="M224.13 685.23C224.13 685.23 228.27 660.78 258.52 668.07C258.52 668.07 258.64 689.21 229.06 691.07L224.13 685.23Z" fill="#6C63FF"/>
<path id="Vector 33" d="M209.51 660.05C209.51 660.05 216.51 636.17 246.43 643.36C246.43 643.36 239.3 664.78 211.5 664.45L209.51 660.05Z" fill="#6C63FF"/>
<path id="Vector 34" d="M195.63 635.45C195.63 635.45 202.42 610.73 231.35 618.15C231.35 618.15 221.69 641.64 197.53 639.66L195.63 635.45Z" fill="#6C63FF"/>
<path id="Vector 35" d="M186.68 612.08C186.68 612.08 191.9 581.85 218.88 588.54C218.88 588.54 211.04 616.04 188.67 616.48L186.68 612.08Z" fill="#6C63FF"/>
<path id="Vector 36" d="M178.29 583.85C178.29 583.85 184.56 553.38 211.83 562.24C211.83 562.24 201.12 591.04 180.19 588.06L178.29 583.85Z" fill="#6C63FF"/>
<path id="Vector 37" d="M173.1 557.55C173.1 557.55 183.04 527.07 204.15 527.9C204.15 527.9 193.98 560.09 174.86 563.66L173.1 557.55Z" fill="#6C63FF"/>
<path id="Vector 38" d="M169.8 531.94C169.8 531.94 180.62 495.25 197.8 498.09C197.8 498.09 190.31 526.09 170.41 537.66L169.8 531.94Z" fill="#6C63FF"/>
<path id="Vector 39" d="M167.92 501.32C167.92 501.32 178.07 470.75 195.03 469.55C195.03 469.55 188.12 499.63 168.3 509.28L167.92 501.32Z" fill="#6C63FF"/>
<path id="Vector 40" d="M165.87 472.81C165.87 472.81 178.53 442.2 189.73 441.51C189.73 441.51 184.24 471.65 166.99 477.83L165.87 472.81Z" fill="#6C63FF"/>
<path id="Vector 41" d="M164.46 446.26C164.46 446.26 172.24 413.02 183.46 410.26C183.46 410.26 181.93 437.44 165.61 448.74L164.46 446.26Z" fill="#6C63FF"/>
<path id="Vector 42" d="M160.26 411.55C160.26 411.55 168.44 385.06 177.5 381.02C177.5 381.02 175.71 412.25 162.36 418.02L160.26 411.55Z" fill="#6C63FF"/>
<path id="Vector 43" d="M156.75 388.69L155.1 341.98C155.1 341.98 172.02 377.24 158 396.93L156.75 388.69Z" fill="#6C63FF"/>
<path id="Vector 44" d="M143.67 342.27C143.67 342.27 131.47 308.16 128.54 306.27C128.54 306.27 152.47 328.4 150.13 356.87L143.67 342.27Z" fill="#6C63FF"/>
<path id="Vector 45" d="M243.3 709.44C243.3 709.44 221.84 706.63 222.48 736.96C222.48 736.96 241.88 740.12 248.21 715.04L243.3 709.44Z" fill="#6C63FF"/>
<path id="Vector 46" d="M223.11 684.42C223.11 684.42 198.31 684.33 200.33 715.42C200.33 715.42 221.14 719.14 228.01 690.32L223.11 684.42Z" fill="#6C63FF"/>
<path id="Vector 47" d="M209.27 662.06C209.27 662.06 186.76 651.55 172.35 678.75C172.35 678.75 193.15 687.54 211.26 666.46L209.27 662.06Z" fill="#6C63FF"/>
<path id="Vector 48" d="M195.13 635.68C195.13 635.68 172.08 624.44 158.54 651.07C158.54 651.07 182.54 659.33 197.03 639.89L195.13 635.68Z" fill="#6C63FF"/>
<path id="Vector 49" d="M186.97 612.74C186.97 612.74 164.79 591.54 147.08 612.98C147.08 612.98 169.75 630.42 187.99 617.46L186.97 612.74Z" fill="#6C63FF"/>
<path id="Vector 50" d="M179.55 583.13C179.55 583.13 157.23 561.45 139.66 584.13C139.66 584.13 164.72 601.91 180.34 587.68L179.55 583.13Z" fill="#6C63FF"/>
<path id="Vector 51" d="M175.41 556.71C175.41 556.71 158.22 529.71 137.97 535.71C137.97 535.71 155.81 564.37 175.22 563.09L175.41 556.71Z" fill="#6C63FF"/>
<path id="Vector 52" d="M170.31 531.77C170.31 531.77 152.96 497.68 136.59 503.6C136.59 503.6 149.08 529.8 170.75 537.5L170.31 531.77Z" fill="#6C63FF"/>
<path id="Vector 53" d="M169.11 499.55C169.11 499.55 151.3 472.71 134.61 475.99C134.61 475.99 149.17 503.2 170.84 507.31L169.11 499.55Z" fill="#6C63FF"/>
<path id="Vector 54" d="M167.75 472.21C167.75 472.21 153.95 442.1 142.75 441.84C142.75 441.84 149.38 471.74 166.85 477.27L167.75 472.21Z" fill="#6C63FF"/>
<path id="Vector 55" d="M165.02 445.6C165.02 445.6 149.67 415.11 138.14 415.05C138.14 415.05 146 441.12 164.5 448.29L165.02 445.6Z" fill="#6C63FF"/>
<path id="Vector 56" d="M162.71 413.39C162.71 413.39 151.23 388.15 141.71 385.29C141.71 385.29 147.45 416.05 161.43 420.08L162.71 413.39Z" fill="#6C63FF"/>
<path id="Vector 57" d="M155.41 387.81L129.74 348.74C129.74 348.74 136.31 387.28 159.13 395.26L155.41 387.81Z" fill="#6C63FF"/>
<path id="Vector 62" d="M316.09 766.55C315.76 766.4 282.6 751.6 248.17 716.27C228.011 695.591 211.253 671.851 198.52 645.93C182.61 613.55 172.91 573.74 169.66 535.05L171.66 535.97C178.97 622.81 218.5 682.18 249.94 714.47C284.03 749.47 316.82 764.14 317.15 764.28L316.09 766.55Z" fill="#444053"/>
<path id="Vector 58" d="M137.78 345.42C137.78 345.42 107.97 324.84 106.89 321.55C106.89 321.55 122.1 350.38 150.21 355.46L137.78 345.42Z" fill="#6C63FF"/>
<path id="Vector 60" d="M162.41 418.27L161.16 418.43C154.73 368.08 145.35 338.33 134.75 334.65L135.17 333.46C146.41 337.36 155.79 366.69 162.41 418.27Z" fill="#444053"/>
<path id="Vector 63" d="M1091.18 134.39V739.23C1091.18 757.23 1073.83 771.84 1052.4 771.84H231.77C210.35 771.84 193 757.21 193 739.23V134.39C193 116.39 210.35 98 231.77 98L1052.36 100C1073.78 99.99 1091.18 116.37 1091.18 134.39Z" fill="#E8EAF2"/>
<path id="Vector 64" d="M1091.18 134.57V162.57H193V134.57C193 124.871 196.853 115.569 203.711 108.711C210.569 101.853 219.871 98 229.57 98H1054.57C1059.38 97.996 1064.13 98.939 1068.58 100.775C1073.02 102.611 1077.05 105.304 1080.45 108.7C1083.85 112.096 1086.55 116.129 1088.39 120.568C1090.23 125.006 1091.18 129.765 1091.18 134.57Z" fill="#65617D"/>
<path id="Vector 61" d="M171.83 538.65L169.95 538.81C169.55 534.11 169.25 529.3 169.04 524.51C167.25 482.83 164.46 444.57 160.8 415.88L161.89 414.54C165.56 443.27 169.13 482.7 170.89 524.42C171.14 529.19 171.41 533.97 171.83 538.65Z" fill="#444053"/>
<path id="Vector 65" opacity="0.8" d="M239 142.09C246.136 142.09 251.92 136.306 251.92 129.17C251.92 122.034 246.136 116.25 239 116.25C231.864 116.25 226.08 122.034 226.08 129.17C226.08 136.306 231.864 142.09 239 142.09Z" fill="#FA5959"/>
<path id="Vector 66" opacity="0.8" d="M276.61 142.09C283.746 142.09 289.53 136.306 289.53 129.17C289.53 122.034 283.746 116.25 276.61 116.25C269.475 116.25 263.69 122.034 263.69 129.17C263.69 136.306 269.475 142.09 276.61 142.09Z" fill="#FED253"/>
<path id="Vector 67" opacity="0.8" d="M314.21 142.09C321.346 142.09 327.13 136.306 327.13 129.17C327.13 122.034 321.346 116.25 314.21 116.25C307.074 116.25 301.29 122.034 301.29 129.17C301.29 136.306 307.074 142.09 314.21 142.09Z" fill="#8CCF4D"/>
<path id="Vector 68" d="M895.51 686.66C896.002 686.66 896.4 686.262 896.4 685.77C896.4 685.278 896.002 684.88 895.51 684.88C895.019 684.88 894.62 685.278 894.62 685.77C894.62 686.262 895.019 686.66 895.51 686.66Z" fill="#E6E8EC"/>
<path id="Vector 69" d="M379.68 360.27H296.95C296.574 360.247 296.198 360.302 295.844 360.43C295.49 360.558 295.166 360.758 294.892 361.016C294.618 361.274 294.4 361.585 294.25 361.931C294.101 362.276 294.024 362.649 294.024 363.025C294.024 363.401 294.101 363.774 294.25 364.119C294.4 364.465 294.618 364.776 294.892 365.034C295.166 365.293 295.49 365.492 295.844 365.62C296.198 365.748 296.574 365.803 296.95 365.78H379.68C380.056 365.803 380.432 365.748 380.786 365.62C381.14 365.492 381.464 365.293 381.738 365.034C382.012 364.776 382.231 364.465 382.38 364.119C382.529 363.774 382.606 363.401 382.606 363.025C382.606 362.649 382.529 362.276 382.38 361.931C382.231 361.585 382.012 361.274 381.738 361.016C381.464 360.758 381.14 360.558 380.786 360.43C380.432 360.302 380.056 360.247 379.68 360.27ZM379.68 369.72H296.95C296.218 369.72 295.516 370.011 294.998 370.528C294.481 371.046 294.19 371.748 294.19 372.48C294.19 373.212 294.481 373.914 294.998 374.432C295.516 374.949 296.218 375.24 296.95 375.24H379.68C380.412 375.24 381.114 374.949 381.632 374.432C382.149 373.914 382.44 373.212 382.44 372.48C382.44 371.748 382.149 371.046 381.632 370.528C381.114 370.011 380.412 369.72 379.68 369.72ZM375.53 305.94H301.11C299.277 305.943 297.52 306.671 296.223 307.966C294.926 309.261 294.195 311.017 294.19 312.85V347.85C294.195 349.683 294.926 351.439 296.223 352.734C297.52 354.029 299.277 354.757 301.11 354.76H375.53C377.361 354.755 379.116 354.025 380.41 352.73C381.705 351.436 382.435 349.681 382.44 347.85V312.85C382.435 311.019 381.705 309.264 380.41 307.97C379.116 306.675 377.361 305.945 375.53 305.94ZM310.34 348.49H303.25C302.518 348.49 301.816 348.199 301.298 347.682C300.781 347.164 300.49 346.462 300.49 345.73C300.49 344.998 300.781 344.296 301.298 343.778C301.816 343.261 302.518 342.97 303.25 342.97H310.34C311.072 342.97 311.774 343.261 312.292 343.778C312.809 344.296 313.1 344.998 313.1 345.73C313.1 346.462 312.809 347.164 312.292 347.682C311.774 348.199 311.072 348.49 310.34 348.49ZM310.34 317.76H303.25C302.518 317.76 301.816 317.469 301.298 316.952C300.781 316.434 300.49 315.732 300.49 315C300.49 314.268 300.781 313.566 301.298 313.048C301.816 312.531 302.518 312.24 303.25 312.24H310.34C311.072 312.24 311.774 312.531 312.292 313.048C312.809 313.566 313.1 314.268 313.1 315C313.1 315.732 312.809 316.434 312.292 316.952C311.774 317.469 311.072 317.76 310.34 317.76ZM338.34 346.12C335.223 346.12 332.176 345.196 329.584 343.464C326.993 341.732 324.973 339.271 323.78 336.391C322.587 333.511 322.275 330.343 322.883 327.285C323.491 324.228 324.992 321.42 327.196 319.216C329.4 317.012 332.208 315.511 335.265 314.903C338.323 314.295 341.491 314.607 344.371 315.8C347.251 316.993 349.712 319.012 351.444 321.604C353.176 324.196 354.1 327.243 354.1 330.36C354.095 334.542 352.43 338.55 349.471 341.505C346.512 344.46 342.502 346.12 338.32 346.12H338.34ZM373.41 348.49H366.32C365.588 348.49 364.886 348.199 364.368 347.682C363.851 347.164 363.56 346.462 363.56 345.73C363.56 344.998 363.851 344.296 364.368 343.778C364.886 343.261 365.588 342.97 366.32 342.97H373.41C374.142 342.97 374.844 343.261 375.362 343.778C375.879 344.296 376.17 344.998 376.17 345.73C376.17 346.462 375.879 347.164 375.362 347.682C374.844 348.199 374.142 348.49 373.41 348.49ZM373.41 317.76H366.32C365.588 317.76 364.886 317.469 364.368 316.952C363.851 316.434 363.56 315.732 363.56 315C363.56 314.268 363.851 313.566 364.368 313.048C364.886 312.531 365.588 312.24 366.32 312.24H373.41C374.142 312.24 374.844 312.531 375.362 313.048C375.879 313.566 376.17 314.268 376.17 315C376.17 315.732 375.879 316.434 375.362 316.952C374.844 317.469 374.142 317.76 373.41 317.76Z" fill="white"/>
<path id="Vector 70" d="M338.32 341.18C344.086 341.18 348.76 336.506 348.76 330.74C348.76 324.974 344.086 320.3 338.32 320.3C332.554 320.3 327.88 324.974 327.88 330.74C327.88 336.506 332.554 341.18 338.32 341.18Z" fill="white"/>
<path id="Vector 71" opacity="0.2" d="M872.16 236.29H496.47V444.87H872.16V236.29Z" fill="#6C63FF"/>
<path id="Vector 72" opacity="0.2" d="M872.16 491.53H496.47V700.11H872.16V491.53Z" fill="#6C63FF"/>
<path id="Vector 73" d="M581.72 381.53H570.35V419.63H581.72V381.53Z" fill="white"/>
<path id="Vector 74" d="M603.37 334.36H592V419.63H603.37V334.36Z" fill="white"/>
<path id="Vector 75" d="M625.03 291.86H613.66V419.63H625.03V291.86Z" fill="#DFE3EF"/>
<path id="Vector 76" d="M646.69 261.54H635.32V419.63H646.69V261.54Z" fill="white"/>
<path id="Vector 77" d="M625.03 261.54H613.66V419.63H625.03V261.54Z" fill="#6C63FF"/>
<path id="Vector 78" d="M668.34 332.73H656.97V419.63H668.34V332.73Z" fill="#6C63FF"/>
<path id="Vector 79" opacity="0.2" d="M690 310.27H678.63V419.63H690V310.27Z" fill="#6C63FF"/>
<path id="Vector 80" d="M711.65 276.16H700.28V419.63H711.65V276.16Z" fill="#6C63FF"/>
<path id="Vector 81" opacity="0.2" d="M733.31 355.74H721.94V419.63H733.31V355.74Z" fill="#6C63FF"/>
<path id="Vector 82" d="M754.97 326.24H743.6V419.63H754.97V326.24Z" fill="#6C63FF"/>
<path id="Vector 83" opacity="0.2" d="M776.62 291.86H765.25V419.63H776.62V291.86Z" fill="#6C63FF"/>
<path id="Vector 84" d="M798.28 291.86H786.91V419.63H798.28V291.86Z" fill="#6C63FF"/>
<path id="Vector 85" d="M382.41 570.6C382.405 568.931 381.739 567.331 380.559 566.151C379.379 564.971 377.779 564.305 376.11 564.3H300.5C298.83 564.305 297.229 564.97 296.047 566.15C294.866 567.33 294.198 568.93 294.19 570.6V580.06H382.41V570.6ZM294.16 621.03C294.165 622.702 294.832 624.304 296.014 625.486C297.196 626.668 298.798 627.335 300.47 627.34H376.11C377.781 627.335 379.382 626.668 380.562 625.485C381.743 624.303 382.407 622.701 382.41 621.03V589.55H294.19L294.16 621.03ZM322.16 611.58H354.47C354.846 611.557 355.222 611.612 355.576 611.74C355.93 611.868 356.254 612.067 356.528 612.325C356.802 612.584 357.02 612.895 357.17 613.241C357.319 613.586 357.396 613.959 357.396 614.335C357.396 614.711 357.319 615.084 357.17 615.429C357.02 615.775 356.802 616.086 356.528 616.344C356.254 616.603 355.93 616.802 355.576 616.93C355.222 617.058 354.846 617.113 354.47 617.09H322.16C321.458 617.048 320.799 616.739 320.317 616.227C319.835 615.715 319.566 615.038 319.566 614.335C319.566 613.632 319.835 612.955 320.317 612.443C320.799 611.931 321.458 611.622 322.16 611.58ZM307.98 611.58H310.34C310.716 611.557 311.092 611.612 311.446 611.74C311.8 611.868 312.124 612.067 312.398 612.325C312.672 612.584 312.891 612.895 313.04 613.241C313.189 613.586 313.266 613.959 313.266 614.335C313.266 614.711 313.189 615.084 313.04 615.429C312.891 615.775 312.672 616.086 312.398 616.344C312.124 616.603 311.8 616.802 311.446 616.93C311.092 617.058 310.716 617.113 310.34 617.09H307.98C307.604 617.113 307.228 617.058 306.874 616.93C306.52 616.802 306.196 616.603 305.922 616.344C305.648 616.086 305.429 615.775 305.28 615.429C305.131 615.084 305.054 614.711 305.054 614.335C305.054 613.959 305.131 613.586 305.28 613.241C305.429 612.895 305.648 612.584 305.922 612.325C306.196 612.067 306.52 611.868 306.874 611.74C307.228 611.612 307.604 611.557 307.98 611.58Z" fill="white"/>
<path id="Vector 86" d="M581.72 636.76H570.35V674.86H581.72V636.76Z" fill="white"/>
<path id="Vector 87" d="M603.37 589.59H592V674.86H603.37V589.59Z" fill="white"/>
<path id="Vector 88" d="M625.03 547.09H613.66V674.86H625.03V547.09Z" fill="#DFE3EF"/>
<path id="Vector 89" d="M646.69 516.77H635.32V674.86H646.69V516.77Z" fill="white"/>
<path id="Vector 90" d="M625.03 516.77H613.66V674.86H625.03V516.77Z" fill="#6C63FF"/>
<path id="Vector 91" d="M668.34 587.96H656.97V674.86H668.34V587.96Z" fill="#6C63FF"/>
<path id="Vector 92" d="M690 565.5H678.63V674.86H690V565.5Z" fill="white"/>
<path id="Vector 93" d="M711.65 531.39H700.28V674.86H711.65V531.39Z" fill="white"/>
<path id="Vector 94" opacity="0.2" d="M733.31 610.97H721.94V674.86H733.31V610.97Z" fill="#6C63FF"/>
<path id="Vector 95" opacity="0.2" d="M754.97 581.47H743.6V674.86H754.97V581.47Z" fill="#6C63FF"/>
<path id="Vector 96" opacity="0.2" d="M776.62 547.09H765.25V674.86H776.62V547.09Z" fill="#6C63FF"/>
<path id="Vector 97" opacity="0.2" d="M798.28 547.09H786.91V674.86H798.28V547.09Z" fill="#6C63FF"/>
</g>
</svg>
