<svg width="514" height="722" viewBox="0 0 514 722" fill="none" xmlns="http://www.w3.org/2000/svg">
<g id="phone 1" clip-path="url(#clip0)">
<g id="Group">
<path id="Vector" d="M434.772 231.136H431.236V134.139C431.236 119.25 425.329 104.971 414.815 94.4428C404.301 83.9147 390.04 78 375.171 78H169.939C162.577 78 155.286 79.452 148.484 82.2733C141.682 85.0945 135.501 89.2296 130.295 94.4426C125.089 99.6556 120.959 105.844 118.141 112.655C115.324 119.467 113.873 126.767 113.873 134.139V666.271C113.873 673.644 115.324 680.944 118.141 687.755C120.959 694.566 125.088 700.755 130.295 705.968C135.501 711.181 141.681 715.316 148.484 718.137C155.286 720.958 162.576 722.411 169.939 722.411H375.171C382.533 722.411 389.824 720.958 396.626 718.137C403.428 715.316 409.609 711.181 414.815 705.968C420.021 700.755 424.151 694.566 426.968 687.755C429.786 680.944 431.236 673.644 431.236 666.272V300.18H434.772V231.136Z" fill="#3F3D56"/>
<path id="Vector_2" d="M377.011 93.9332H350.221C351.453 96.9576 351.923 100.239 351.591 103.488C351.258 106.737 350.132 109.855 348.312 112.566C346.493 115.277 344.036 117.498 341.157 119.034C338.278 120.57 335.066 121.374 331.804 121.374H214.229C210.967 121.374 207.755 120.57 204.877 119.034C201.998 117.498 199.54 115.277 197.721 112.566C195.901 109.855 194.776 106.737 194.443 103.488C194.11 100.239 194.58 96.9576 195.812 93.9332H170.791C159.686 93.9332 149.037 98.3502 141.185 106.212C133.333 114.075 128.922 124.738 128.922 135.857V667.209C128.922 672.714 130.004 678.166 132.109 683.252C134.213 688.339 137.297 692.961 141.185 696.854C145.073 700.747 149.688 703.835 154.768 705.942C159.848 708.048 165.292 709.133 170.791 709.133H377.011C388.115 709.133 398.765 704.716 406.617 696.854C414.469 688.991 418.88 678.328 418.88 667.209V135.857C418.88 130.352 417.797 124.9 415.693 119.814C413.589 114.727 410.505 110.106 406.617 106.212C402.729 102.319 398.113 99.2314 393.033 97.1245C387.954 95.0176 382.509 93.9332 377.011 93.9332ZM372.51 340.431C372.501 343.308 371.356 346.065 369.324 348.1C367.292 350.135 364.539 351.281 361.665 351.29H309.248C306.374 351.281 303.62 350.135 301.588 348.1C299.556 346.065 298.411 343.308 298.403 340.431V337.716C298.411 334.838 299.556 332.081 301.588 330.046C303.62 328.012 306.374 326.865 309.248 326.857H361.665C364.539 326.865 367.292 328.012 369.324 330.046C371.356 332.081 372.501 334.838 372.51 337.716V340.431ZM378.384 292.469C378.376 295.347 377.231 298.104 375.199 300.138C373.167 302.173 370.413 303.32 367.539 303.328H179.56C176.686 303.32 173.933 302.173 171.901 300.138C169.869 298.104 168.723 295.347 168.715 292.469V289.754C168.723 286.877 169.869 284.12 171.901 282.085C173.933 280.05 176.686 278.904 179.56 278.895H367.539C370.413 278.904 373.167 280.05 375.199 282.085C377.231 284.12 378.376 286.877 378.384 289.754V292.469ZM378.384 244.508C378.376 247.385 377.231 250.142 375.199 252.177C373.167 254.212 370.413 255.358 367.539 255.367H179.56C176.686 255.358 173.933 254.212 171.901 252.177C169.869 250.142 168.723 247.385 168.715 244.508V241.793C168.723 238.915 169.869 236.158 171.901 234.124C173.933 232.089 176.686 230.942 179.56 230.934H367.539C370.413 230.942 373.167 232.089 375.199 234.124C377.231 236.158 378.376 238.915 378.384 241.793V244.508ZM378.384 196.546C378.376 199.424 377.231 202.181 375.199 204.216C373.167 206.25 370.413 207.397 367.539 207.405H179.56C176.686 207.397 173.933 206.25 171.901 204.216C169.869 202.181 168.723 199.424 168.715 196.546V193.831C168.723 190.954 169.869 188.197 171.901 186.162C173.933 184.127 176.686 182.981 179.56 182.972H367.539C370.413 182.981 373.167 184.127 375.199 186.162C377.231 188.197 378.376 190.954 378.384 193.831V196.546Z" fill="white"/>
<path id="Vector_3" d="M183.627 297.899C187.121 297.899 189.953 295.063 189.953 291.564C189.953 288.066 187.121 285.23 183.627 285.23C180.133 285.23 177.3 288.066 177.3 291.564C177.3 295.063 180.133 297.899 183.627 297.899Z" fill="white"/>
<path id="Vector_4" d="M204.413 297.899C207.907 297.899 210.739 295.063 210.739 291.564C210.739 288.066 207.907 285.23 204.413 285.23C200.919 285.23 198.087 288.066 198.087 291.564C198.087 295.063 200.919 297.899 204.413 297.899Z" fill="white"/>
<path id="Vector_5" d="M225.199 297.899C228.693 297.899 231.525 295.063 231.525 291.564C231.525 288.066 228.693 285.23 225.199 285.23C221.705 285.23 218.873 288.066 218.873 291.564C218.873 295.063 221.705 297.899 225.199 297.899Z" fill="white"/>
<path id="Vector_6" d="M245.985 297.899C249.479 297.899 252.312 295.063 252.312 291.564C252.312 288.066 249.479 285.23 245.985 285.23C242.491 285.23 239.659 288.066 239.659 291.564C239.659 295.063 242.491 297.899 245.985 297.899Z" fill="white"/>
<path id="Vector_7" d="M313.766 345.86C317.26 345.86 320.092 343.024 320.092 339.526C320.092 336.027 317.26 333.191 313.766 333.191C310.272 333.191 307.44 336.027 307.44 339.526C307.44 343.024 310.272 345.86 313.766 345.86Z" fill="white"/>
<path id="Vector_8" d="M334.552 345.86C338.046 345.86 340.879 343.024 340.879 339.526C340.879 336.027 338.046 333.191 334.552 333.191C331.059 333.191 328.226 336.027 328.226 339.526C328.226 343.024 331.059 345.86 334.552 345.86Z" fill="white"/>
<path id="Vector_9" d="M355.339 345.86C358.833 345.86 361.665 343.024 361.665 339.526C361.665 336.027 358.833 333.191 355.339 333.191C351.845 333.191 349.012 336.027 349.012 339.526C349.012 343.024 351.845 345.86 355.339 345.86Z" fill="white"/>
<path id="Vector_10" d="M379.839 421.601H165.453C160.416 421.601 155.586 423.605 152.025 427.171C148.463 430.737 146.462 435.574 146.462 440.617V545.207C146.462 550.25 148.463 555.087 152.025 558.653C155.586 562.219 160.416 564.223 165.453 564.223H379.839C384.875 564.223 389.706 562.219 393.267 558.653C396.829 555.087 398.829 550.25 398.829 545.207V440.617C398.829 435.574 396.829 430.737 393.267 427.171C389.706 423.605 384.875 421.601 379.839 421.601ZM160.149 434.573C160.572 434.496 170.611 432.786 178.924 437.794C187.236 442.801 190.429 452.485 190.561 452.894L190.897 453.938L189.818 454.13C188.279 454.37 186.723 454.485 185.166 454.472C180.225 454.566 175.349 453.336 171.043 450.908C162.731 445.901 159.538 436.218 159.406 435.809L159.07 434.764L160.149 434.573ZM206.686 531.678H168.449C165.66 531.678 162.985 530.569 161.013 528.594C159.041 526.62 157.934 523.941 157.934 521.149C157.934 518.356 159.041 515.678 161.013 513.704C162.985 511.729 165.66 510.62 168.449 510.62H206.686C209.475 510.62 212.15 511.729 214.122 513.704C216.094 515.678 217.202 518.356 217.202 521.149C217.202 523.941 216.094 526.62 214.122 528.594C212.15 530.569 209.475 531.678 206.686 531.678ZM380.667 529.764C380.658 532.807 379.446 535.724 377.297 537.876C375.148 540.028 372.235 541.241 369.195 541.25H340.517C337.478 541.241 334.565 540.028 332.416 537.876C330.266 535.724 329.055 532.807 329.046 529.764V512.534C329.055 509.491 330.266 506.574 332.416 504.422C334.565 502.27 337.478 501.057 340.517 501.048H369.195C372.235 501.057 375.148 502.27 377.297 504.422C379.446 506.574 380.658 509.491 380.667 512.534V529.764Z" fill="#6C63FF"/>
<path id="Vector_11" d="M349.764 526.213H338.233C337.41 526.213 336.62 526.541 336.038 527.124C335.456 527.707 335.129 528.497 335.129 529.322C335.129 530.146 335.456 530.937 336.038 531.52C336.62 532.103 337.41 532.43 338.233 532.43H349.764C350.587 532.43 351.377 532.103 351.959 531.52C352.541 530.937 352.868 530.146 352.868 529.322C352.868 528.497 352.541 527.707 351.959 527.124C351.377 526.541 350.587 526.213 349.764 526.213Z" fill="#3F3D56"/>
<path id="Vector_12" d="M371.051 526.213H359.52C358.697 526.213 357.907 526.541 357.325 527.124C356.743 527.707 356.416 528.497 356.416 529.322C356.416 530.146 356.743 530.937 357.325 531.52C357.907 532.103 358.697 532.43 359.52 532.43H371.051C371.874 532.43 372.664 532.103 373.246 531.52C373.828 530.937 374.155 530.146 374.155 529.322C374.155 528.497 373.828 527.707 373.246 527.124C372.664 526.541 371.874 526.213 371.051 526.213Z" fill="#3F3D56"/>
<path id="Vector_13" d="M349.762 517.438H338.231C337.408 517.438 336.618 517.766 336.036 518.349C335.454 518.932 335.127 519.723 335.127 520.547C335.127 521.371 335.454 522.162 336.036 522.745C336.618 523.328 337.408 523.655 338.231 523.655H349.762C350.585 523.655 351.375 523.328 351.957 522.745C352.539 522.162 352.866 521.371 352.866 520.547C352.866 519.723 352.539 518.932 351.957 518.349C351.375 517.766 350.585 517.438 349.762 517.438Z" fill="#3F3D56"/>
<path id="Vector_14" d="M371.049 517.438H359.519C358.695 517.438 357.906 517.766 357.323 518.349C356.741 518.932 356.414 519.723 356.414 520.547C356.414 521.371 356.741 522.162 357.323 522.745C357.906 523.328 358.695 523.655 359.519 523.655H371.049C371.873 523.655 372.662 523.328 373.244 522.745C373.827 522.162 374.154 521.371 374.154 520.547C374.154 519.723 373.827 518.932 373.244 518.349C372.662 517.766 371.873 517.438 371.049 517.438Z" fill="#3F3D56"/>
<path id="Vector_15" d="M349.762 508.841H338.231C337.408 508.841 336.618 509.169 336.036 509.752C335.454 510.335 335.127 511.125 335.127 511.95C335.127 512.774 335.454 513.565 336.036 514.148C336.618 514.731 337.408 515.058 338.231 515.058H349.762C350.585 515.058 351.375 514.731 351.957 514.148C352.539 513.565 352.866 512.774 352.866 511.95C352.866 511.125 352.539 510.335 351.957 509.752C351.375 509.169 350.585 508.841 349.762 508.841Z" fill="#3F3D56"/>
<path id="Vector_16" d="M371.049 508.841H359.519C358.695 508.841 357.906 509.169 357.323 509.752C356.741 510.335 356.414 511.125 356.414 511.95C356.414 512.774 356.741 513.565 357.323 514.148C357.906 514.731 358.695 515.058 359.519 515.058H371.049C371.873 515.058 372.662 514.731 373.244 514.148C373.827 513.565 374.154 512.774 374.154 511.95C374.154 511.125 373.827 510.335 373.244 509.752C372.662 509.169 371.873 508.841 371.049 508.841Z" fill="#3F3D56"/>
<g id="kanan">
<path id="Vector_17" d="M528.325 461H500.362V489H528.325V461Z" fill="#E6E6E6"/>
<path id="Vector_18" d="M467.405 478H513.345V524H467.405V478ZM511.347 480H469.402V522H511.347V480Z" fill="#3F3D56"/>
</g>
<g id="kiri">
<path id="Vector_19" d="M41.9633 230H14V258H41.9633V230Z" fill="#E6E6E6"/>
<path id="Vector_20" d="M74.9201 241H28.9803V195H74.9201V241ZM30.9777 239H72.9227V197H30.9777V239Z" fill="#3F3D56"/>
</g>
</g>
</g>
<defs>
<clipPath id="clip0">
<rect width="514" height="722" fill="white"/>
</clipPath>
</defs>
</svg>
