<svg width="796" height="741" viewBox="0 0 796 741" fill="none" xmlns="http://www.w3.org/2000/svg">
<g id="Frame 1">
<path id="Vector" d="M188.479 177.85C188.479 177.85 147.349 155.27 135.149 120.68C130.128 106.135 120.524 93.6111 107.779 84.99C101.697 80.9429 95.2565 77.4616 88.5389 74.59" stroke="#535461" stroke-width="2" stroke-miterlimit="10"/>
<path id="Vector_2" d="M80.7389 52.84C84.6289 56.75 88.8189 75.14 88.8189 75.14C88.8189 75.14 70.4589 70.84 66.5689 66.92C64.851 65.0124 63.9326 62.5171 64.0039 59.9509C64.0751 57.3848 65.1305 54.9443 66.9515 53.1348C68.7725 51.3254 71.2197 50.2856 73.7862 50.2307C76.3528 50.1758 78.8422 51.1101 80.7389 52.84V52.84Z" fill="#6C63FF"/>
<path id="Vector_3" d="M113.989 62.87C115.129 68.27 108.659 85.98 108.659 85.98C108.659 85.98 95.5889 72.39 94.4489 66.98C94.0329 64.4402 94.6122 61.8378 96.0662 59.7143C97.5202 57.5907 99.737 56.1095 102.255 55.5788C104.774 55.0481 107.4 55.5088 109.587 56.8649C111.774 58.2211 113.354 60.3684 113.999 62.86L113.989 62.87Z" fill="#6C63FF"/>
<path id="Vector_4" d="M150.289 100.41C148.549 105.64 134.019 117.67 134.019 117.67C134.019 117.67 129.599 99.34 131.339 94.1C132.176 91.5805 133.979 89.4965 136.352 88.3066C138.726 87.1167 141.474 86.9183 143.994 87.755C146.513 88.5918 148.597 90.3952 149.787 92.7684C150.977 95.1417 151.176 97.8905 150.339 100.41H150.289Z" fill="#6C63FF"/>
<path id="Vector_5" d="M171.399 135C170.569 140.45 158.279 154.76 158.279 154.76C158.279 154.76 150.819 137.44 151.649 131.99C151.787 130.643 152.198 129.338 152.855 128.155C153.513 126.971 154.404 125.933 155.474 125.105C156.545 124.276 157.773 123.673 159.083 123.332C160.394 122.992 161.76 122.921 163.098 123.125C164.437 123.328 165.72 123.801 166.871 124.515C168.021 125.229 169.014 126.17 169.791 127.279C170.567 128.389 171.109 129.644 171.386 130.97C171.662 132.295 171.667 133.663 171.399 134.99V135Z" fill="#6C63FF"/>
<path id="Vector_6" d="M94.5389 101.53C100.059 101.47 115.939 91.29 115.939 91.29C115.939 91.29 99.8289 81.49 94.3089 81.55C91.6567 81.5805 89.1253 82.6633 87.2715 84.5603C85.4177 86.4572 84.3934 89.0129 84.4239 91.665C84.4544 94.3172 85.5372 96.8486 87.4341 98.7024C89.3311 100.556 91.8867 101.581 94.5389 101.55V101.53Z" fill="#6C63FF"/>
<path id="Vector_7" d="M119.689 141.67C124.929 139.96 137.039 125.5 137.039 125.5C137.039 125.5 118.729 120.97 113.489 122.68C111.061 123.574 109.074 125.375 107.946 127.703C106.817 130.031 106.635 132.706 107.438 135.166C108.241 137.626 109.965 139.679 112.25 140.893C114.534 142.108 117.201 142.39 119.689 141.68V141.67Z" fill="#6C63FF"/>
<path id="Vector_8" d="M149.489 177.33C154.949 176.53 169.329 164.33 169.329 164.33C169.329 164.33 152.049 156.77 146.599 157.57C145.257 157.708 143.956 158.117 142.776 158.771C141.596 159.425 140.56 160.312 139.732 161.377C138.903 162.441 138.299 163.663 137.955 164.968C137.611 166.273 137.534 167.634 137.73 168.969C137.926 170.304 138.39 171.585 139.094 172.736C139.798 173.887 140.728 174.884 141.828 175.666C142.927 176.448 144.174 177 145.492 177.287C146.811 177.575 148.173 177.593 149.499 177.34L149.489 177.33Z" fill="#6C63FF"/>
<path id="Vector_9" d="M151.479 315.85C151.479 315.85 110.349 293.27 98.1489 258.68C93.1285 244.135 83.5243 231.611 70.7789 222.99C64.6967 218.943 58.2565 215.462 51.5389 212.59" stroke="#535461" stroke-width="2" stroke-miterlimit="10"/>
<path id="Vector_10" d="M43.7389 190.84C47.6289 194.75 51.8189 213.14 51.8189 213.14C51.8189 213.14 33.4589 208.84 29.5689 204.92C27.851 203.012 26.9326 200.517 27.0039 197.951C27.0751 195.385 28.1305 192.944 29.9515 191.135C31.7725 189.325 34.2197 188.286 36.7862 188.231C39.3528 188.176 41.8422 189.11 43.7389 190.84Z" fill="#6C63FF"/>
<path id="Vector_11" d="M76.9889 200.87C78.1289 206.27 71.6589 223.98 71.6589 223.98C71.6589 223.98 58.5889 210.39 57.4489 204.98C57.0329 202.44 57.6122 199.838 59.0662 197.714C60.5202 195.591 62.737 194.11 65.2553 193.579C67.7736 193.048 70.3996 193.509 72.5869 194.865C74.7742 196.221 76.3545 198.368 76.9989 200.86L76.9889 200.87Z" fill="#6C63FF"/>
<path id="Vector_12" d="M113.289 238.41C111.549 243.64 97.0189 255.67 97.0189 255.67C97.0189 255.67 92.5989 237.34 94.3389 232.1C94.7532 230.852 95.4092 229.699 96.2694 228.705C97.1296 227.711 98.1772 226.896 99.3523 226.307C100.527 225.717 101.807 225.365 103.118 225.271C104.429 225.176 105.746 225.341 106.994 225.755C108.241 226.169 109.395 226.825 110.389 227.686C111.383 228.546 112.198 229.593 112.787 230.768C113.377 231.944 113.728 233.223 113.823 234.534C113.918 235.846 113.753 237.162 113.339 238.41H113.289Z" fill="#6C63FF"/>
<path id="Vector_13" d="M134.399 273C133.569 278.45 121.279 292.76 121.279 292.76C121.279 292.76 113.819 275.44 114.649 269.99C114.787 268.643 115.198 267.338 115.855 266.155C116.513 264.971 117.404 263.933 118.474 263.105C119.545 262.276 120.773 261.673 122.083 261.332C123.394 260.992 124.76 260.921 126.098 261.125C127.437 261.328 128.72 261.801 129.871 262.515C131.021 263.229 132.014 264.17 132.791 265.279C133.567 266.389 134.109 267.644 134.386 268.97C134.662 270.295 134.667 271.663 134.399 272.99V273Z" fill="#6C63FF"/>
<path id="Vector_14" d="M57.5389 239.53C63.0589 239.47 78.9389 229.29 78.9389 229.29C78.9389 229.29 62.8289 219.49 57.3089 219.55C54.6567 219.581 52.1253 220.663 50.2715 222.56C48.4177 224.457 47.3934 227.013 47.4239 229.665C47.4544 232.317 48.5372 234.849 50.4341 236.702C52.3311 238.556 54.8867 239.581 57.5389 239.55V239.53Z" fill="#6C63FF"/>
<path id="Vector_15" d="M82.6889 279.67C87.9289 277.96 100.039 263.5 100.039 263.5C100.039 263.5 81.7289 258.97 76.4889 260.68C75.1958 261.049 73.9904 261.675 72.9448 262.521C71.8993 263.366 71.035 264.414 70.4037 265.601C69.7724 266.789 69.387 268.091 69.2707 269.431C69.1543 270.77 69.3093 272.12 69.7265 273.398C70.1437 274.677 70.8144 275.858 71.6985 276.871C72.5826 277.884 73.662 278.709 74.8721 279.295C76.0822 279.881 77.3982 280.218 78.7413 280.284C80.0844 280.35 81.427 280.145 82.6889 279.68V279.67Z" fill="#6C63FF"/>
<path id="Vector_16" d="M112.489 315.33C117.949 314.53 132.329 302.33 132.329 302.33C132.329 302.33 115.049 294.77 109.599 295.57C108.257 295.708 106.956 296.117 105.776 296.771C104.596 297.425 103.56 298.312 102.732 299.377C101.903 300.441 101.299 301.663 100.955 302.968C100.611 304.273 100.534 305.634 100.73 306.969C100.926 308.304 101.39 309.585 102.094 310.736C102.798 311.887 103.728 312.884 104.828 313.666C105.927 314.448 107.174 315 108.492 315.287C109.811 315.575 111.173 315.593 112.499 315.34L112.489 315.33Z" fill="#6C63FF"/>
<path id="Vector_17" d="M628.279 7.00004H163.709C158.12 6.99216 152.584 8.0852 147.417 10.2168C142.251 12.3483 137.554 15.4766 133.597 19.4231C129.639 23.3696 126.498 28.057 124.352 33.2176C122.205 38.3782 121.097 43.911 121.089 49.5V693.22C121.095 698.81 122.203 704.344 124.349 709.506C126.494 714.667 129.636 719.356 133.593 723.303C137.551 727.251 142.248 730.38 147.415 732.512C152.582 734.645 158.119 735.738 163.709 735.73H628.279C633.868 735.738 639.404 734.645 644.57 732.513C649.737 730.382 654.433 727.253 658.391 723.307C662.349 719.36 665.49 714.673 667.636 709.513C669.782 704.352 670.891 698.819 670.899 693.23V49.49C670.88 38.2042 666.38 27.3877 658.387 19.4196C650.395 11.4515 639.565 6.98412 628.279 7.00004Z" fill="url(#paint0_linear)"/>
<path id="Vector_18" d="M644.359 15.73H147.639C136.593 15.73 127.639 24.6843 127.639 35.73V709.17C127.639 720.216 136.593 729.17 147.639 729.17H644.359C655.405 729.17 664.359 720.216 664.359 709.17V35.73C664.359 24.6843 655.405 15.73 644.359 15.73Z" fill="#535461"/>
<path id="Vector_19" d="M637.089 83.22H154.909V661.69H637.089V83.22Z" fill="#F1F1F4"/>
<path id="Vector_20" d="M393.819 55C397.436 55 400.369 52.0675 400.369 48.45C400.369 44.8326 397.436 41.9 393.819 41.9C390.201 41.9 387.269 44.8326 387.269 48.45C387.269 52.0675 390.201 55 393.819 55Z" fill="white"/>
<path id="Vector_21" d="M393.819 713.9C404.666 713.9 413.459 705.107 413.459 694.26C413.459 683.413 404.666 674.62 393.819 674.62C382.972 674.62 374.179 683.413 374.179 694.26C374.179 705.107 382.972 713.9 393.819 713.9Z" fill="white"/>
<path id="Vector_22" d="M295.149 158.36H224.849C218.304 158.36 212.999 163.665 212.999 170.21V240.51C212.999 247.055 218.304 252.36 224.849 252.36H295.149C301.693 252.36 306.999 247.055 306.999 240.51V170.21C306.999 163.665 301.693 158.36 295.149 158.36Z" fill="#6C63FF"/>
<path id="Vector_23" opacity="0.2" d="M496.849 252.36H567.149C573.693 252.36 578.999 247.055 578.999 240.51V170.21C578.999 163.665 573.693 158.36 567.149 158.36H496.849C490.304 158.36 484.999 163.665 484.999 170.21V240.51C484.999 247.055 490.304 252.36 496.849 252.36Z" fill="#6C63FF"/>
<path id="Vector_24" d="M431.149 158.36H360.849C354.304 158.36 348.999 163.665 348.999 170.21V240.51C348.999 247.055 354.304 252.36 360.849 252.36H431.149C437.693 252.36 442.999 247.055 442.999 240.51V170.21C442.999 163.665 437.693 158.36 431.149 158.36Z" fill="#6C63FF"/>
<path id="Vector_25" d="M295.149 324.36H224.849C218.304 324.36 212.999 329.665 212.999 336.21V406.51C212.999 413.055 218.304 418.36 224.849 418.36H295.149C301.693 418.36 306.999 413.055 306.999 406.51V336.21C306.999 329.665 301.693 324.36 295.149 324.36Z" fill="#6C63FF"/>
<path id="Vector_26" opacity="0.2" d="M496.849 418.36H567.149C573.693 418.36 578.999 413.055 578.999 406.51V336.21C578.999 329.665 573.693 324.36 567.149 324.36H496.849C490.304 324.36 484.999 329.665 484.999 336.21V406.51C484.999 413.055 490.304 418.36 496.849 418.36Z" fill="#6C63FF"/>
<path id="Vector_27" opacity="0.2" d="M431.149 324.36H360.849C354.304 324.36 348.999 329.665 348.999 336.21V406.51C348.999 413.055 354.304 418.36 360.849 418.36H431.149C437.693 418.36 442.999 413.055 442.999 406.51V336.21C442.999 329.665 437.693 324.36 431.149 324.36Z" fill="#6C63FF"/>
<path id="Vector_28" d="M295.149 490.36H224.849C218.304 490.36 212.999 495.665 212.999 502.21V572.51C212.999 579.055 218.304 584.36 224.849 584.36H295.149C301.693 584.36 306.999 579.055 306.999 572.51V502.21C306.999 495.665 301.693 490.36 295.149 490.36Z" fill="#6C63FF"/>
<path id="Vector_29" d="M496.849 584.36H567.149C573.693 584.36 578.999 579.055 578.999 572.51V502.21C578.999 495.665 573.693 490.36 567.149 490.36H496.849C490.304 490.36 484.999 495.665 484.999 502.21V572.51C484.999 579.055 490.304 584.36 496.849 584.36Z" fill="#6C63FF"/>
<path id="Vector_30" d="M431.149 490.36H360.849C354.304 490.36 348.999 495.665 348.999 502.21V572.51C348.999 579.055 354.304 584.36 360.849 584.36H431.149C437.693 584.36 442.999 579.055 442.999 572.51V502.21C442.999 495.665 437.693 490.36 431.149 490.36Z" fill="#6C63FF"/>
</g>
<defs>
<linearGradient id="paint0_linear" x1="395.989" y1="735.72" x2="395.989" y2="7" gradientUnits="userSpaceOnUse">
<stop stop-color="#808080" stop-opacity="0.25"/>
<stop offset="0.54" stop-color="#808080" stop-opacity="0.12"/>
<stop offset="1" stop-color="#808080" stop-opacity="0.1"/>
</linearGradient>
</defs>
</svg>
